<svg style="position: absolute; width: 0; height: 0;" width="0" height="0" version="1.1" xmlns="http://www.w3.org/2000/svg" xmlns:xlink="http://www.w3.org/1999/xlink">
	<defs>
		<symbol id="hand" viewBox="0 0 64.17 91.19">
			<title>hand</title>
			<path d="M64.17,43.06A9,9,0,0,1,63,46.6q-0.88,2-1.7,4.07c-1.12,2.7-2.18,5.43-3.23,8.18-1.6,4.23-3.39,8.44-6.26,12a16.64,16.64,0,0,1-4,4,15.9,15.9,0,0,0-3.13,4.6l-2,10.48a1.14,1.14,0,0,1-1.13,1.28H17.94a1.07,1.07,0,0,1-1.12-.94c-0.2-6.36,1.12-8.65-4.37-18.72-2.75-5-6-24.15-6.34-25.29-3.86-15-3.54-10.49-6-25.75A3.59,3.59,0,0,1,2.83,16a3.74,3.74,0,0,1,4.25,2.78c1,3.33,1.71,6.73,2.59,10.09,0.26,1,.44,2,0.67,3a21.27,21.27,0,0,0,2.31,6.75,1.16,1.16,0,0,0,1,.61,1.11,1.11,0,0,0,.73-0.39A2.44,2.44,0,0,0,15,37.12c-0.45-5.95-1-11.88-1.63-17.82-0.38-3.76-1.18-7.71-1.18-11.49A4.52,4.52,0,0,1,16,2.69C18.17,2.53,20,4.52,20.25,7L25,35.76a1.72,1.72,0,0,0,1.64,1.46,1.06,1.06,0,0,0,.24,0,1,1,0,0,0,1-.87A3.86,3.86,0,0,0,28,35.18c0.21-4.44,2.72-31.07,2.72-31.07A4.31,4.31,0,0,1,35.49,0a4.48,4.48,0,0,1,3.87,4.76c-0.33,6.51-.56,13-0.87,19.53Q38.31,28.18,38.1,32,38,34,37.88,35.94c-0.05.89-.46,2.38,0.63,2.82s1.48-.52,1.7-1.31L41,34.52l2.6-9.44L46,16.44l0.55-2A4.31,4.31,0,0,1,48.78,12a4.15,4.15,0,0,1,3.3-.15c3.56,1.32,2.61,5.54,2.61,5.54l-7.6,37.2a0.91,0.91,0,0,0,1.7.6,111.71,111.71,0,0,1,5.74-9.92,11.2,11.2,0,0,1,4.35-4C61,40.27,64,40.86,64.17,43.06Z"/>
		</symbol>

		<symbol id="lightning" viewBox="0 0 56.46 81.02">
			<title>lightning</title>
			<polygon points="38.54 29.08 56.46 0 20.61 0 0 40.52 18.06 40.52 8.46 81.02 54.48 29.08 38.54 29.08"/>
		</symbol>

		<symbol id="pencil" viewBox="0 0 70.81 71.28">
			<title>pencil</title>
			<polygon points="6.87 20.98 0 0 20.61 7.24 6.87 20.98"/><rect x="25.64" y="8.95" width="20.38" height="55.03" transform="translate(-15.29 36.02) rotate(-45)"/><path d="M65.52,51.55l2.75,2.75a8.55,8.55,0,0,1,0,12.16L66,68.77a8.62,8.62,0,0,1-12.16,0L51.06,66Z"/>
		</symbol>

		<symbol id="pointer" viewBox="0 0 65 67">
			<title>pointer</title>
			<polygon points="65 24.83 33.94 34.99 23.82 67 0 0 65 24.83" />
		</symbol>

		<symbol id="warning" viewBox="0 0 70 61.9">
			<title>warning</title>
			<path d="M69.27,53.85L39.77,2.68a5.4,5.4,0,0,0-9.33,0L0.9,53.85A5.38,5.38,0,0,0,5.57,61.9H64.64A5.37,5.37,0,0,0,69.27,53.85Zm-34.11-.7A4.15,4.15,0,1,1,39.27,49,4.19,4.19,0,0,1,35.16,53.14ZM37,40.74H33.19L30.11,17.07h10Z"/>
		</symbol>

		<symbol id="webhook" viewBox="0 0 70 64.48">
			<title>webhook</title>
			<path d="M55.9,44.17a6.16,6.16,0,0,0-6,4.64H25v1.8a11,11,0,0,1-22-.28H0a14,14,0,0,0,28,1.52H49.93A6.16,6.16,0,1,0,55.9,44.17Z"/><path d="M14,56.49a6.16,6.16,0,0,0,4.3-10.57L30.81,24.34l-1.4-.81h0a11,11,0,0,1,11-19.08l1.5-2.64A14,14,0,0,0,25.08,24a14.16,14.16,0,0,0,1.63,1.4l-11,19A6.16,6.16,0,1,0,14,56.49Z"/><path d="M65.89,40.41a14.07,14.07,0,0,0-15.6-2.92l-11-19A6.16,6.16,0,1,0,36.66,20L49.14,41.56l1.34-.77h0a11,11,0,1,1,11,19.07h0L63,62.49A14,14,0,0,0,65.89,40.41Z"/>
		</symbol>
	</defs>
</svg>